<svg width="16" height="16" viewBox="0 0 16 16" fill="none" xmlns="http://www.w3.org/2000/svg">
<path fill-rule="evenodd" clip-rule="evenodd" d="M1.524 6.857C1.524 5.80223 1.83677 4.77115 2.42277 3.89414C3.00877 3.01714 3.84167 2.33359 4.81615 1.92995C5.79063 1.52631 6.86292 1.4207 7.89742 1.62647C8.93192 1.83225 9.88217 2.34017 10.628 3.086C11.3738 3.83183 11.8818 4.78208 12.0875 5.81658C12.2933 6.85108 12.1877 7.92337 11.784 8.89785C11.3804 9.87233 10.6969 10.7052 9.81985 11.2912C8.94285 11.8772 7.91177 12.19 6.857 12.19C5.4426 12.19 4.08613 11.6281 3.086 10.628C2.08587 9.62787 1.524 8.2714 1.524 6.857ZM6.857 0C5.76172 0.000151457 4.68242 0.262672 3.70943 0.765587C2.73645 1.2685 1.89809 1.99718 1.26453 2.89062C0.630981 3.78406 0.220667 4.81627 0.0679391 5.90084C-0.0847889 6.98542 0.0245129 8.0908 0.386695 9.12445C0.748878 10.1581 1.3534 11.09 2.14967 11.842C2.94593 12.5941 3.91076 13.1445 4.9634 13.4471C6.01604 13.7497 7.12586 13.7958 8.19995 13.5814C9.27404 13.367 10.2812 12.8985 11.137 12.215L14.699 15.777C14.7698 15.8478 14.8538 15.9039 14.9463 15.9422C15.0388 15.9805 15.1379 16.0003 15.238 16.0003C15.3381 16.0003 15.4372 15.9805 15.5297 15.9422C15.6222 15.9039 15.7062 15.8478 15.777 15.777C15.8478 15.7062 15.9039 15.6222 15.9422 15.5297C15.9805 15.4372 16.0003 15.3381 16.0003 15.238C16.0003 15.1379 15.9805 15.0388 15.9422 14.9463C15.9039 14.8538 15.8478 14.7698 15.777 14.699L12.215 11.137C13.0206 10.128 13.525 8.9121 13.6702 7.62914C13.8154 6.34619 13.5954 5.04831 13.0357 3.88481C12.4759 2.72131 11.5991 1.73947 10.506 1.05222C9.41299 0.364975 8.14814 0.000248708 6.857 0Z" fill="#818386"/>
</svg>
