<svg id="icon-status-review" xmlns="http://www.w3.org/2000/svg" width="20" height="20" viewBox="0 0 20 20">
  <rect id="Rectangle_502" data-name="Rectangle 502" width="20" height="20" fill="none"/>
  <g id="description" transform="translate(2 2)">
    <path id="Path_2941" data-name="Path 2941" d="M13.4,2H2.6a.6.6,0,0,0-.6.6V13.4a.6.6,0,0,0,.6.6H13.4a.6.6,0,0,0,.6-.6V2.6A.6.6,0,0,0,13.4,2ZM3.2,3.2h9.6V4.4H3.2Zm9.6,9.6H3.2V5.6h9.6Z" fill="#373737"/>
    <path id="Path_2942" data-name="Path 2942" d="M6.6,12.2h6a.6.6,0,1,0,0-1.2h-6a.6.6,0,1,0,0,1.2Z" transform="translate(-1.6 -3.6)" fill="#373737"/>
    <path id="Path_2943" data-name="Path 2943" d="M6.6,16.2h3a.6.6,0,1,0,0-1.2h-3a.6.6,0,0,0,0,1.2Z" transform="translate(-1.6 -5.2)" fill="#373737"/>
  </g>
</svg>
