<svg id="icon_score" data-name="icon score" xmlns="http://www.w3.org/2000/svg" width="20" height="20" viewBox="0 0 20 20">
  <rect id="Rectangle_500" data-name="Rectangle 500" width="20" height="20" fill="none"/>
  <path id="timer" d="M7.281,6.375v.406h.545a2.325,2.325,0,0,1,.97.268A1.949,1.949,0,0,1,9.813,8.858,2.012,2.012,0,0,1,7.86,10.867a.629.629,0,0,1-.1.008A2.057,2.057,0,0,1,6.031,9.89a.625.625,0,1,1,1.064-.656.829.829,0,0,0,.63.389A.626.626,0,0,1,7.8,9.618a.761.761,0,0,0,.76-.76.706.706,0,0,0-.333-.694A1.079,1.079,0,0,0,7.8,8.031H6.656a.625.625,0,0,1-.625-.625V5.75a.625.625,0,0,1,.625-.625H9.188a.625.625,0,0,1,0,1.25Zm6.376-4.032A7.948,7.948,0,0,0,8,0,.625.625,0,0,0,8,1.25,6.75,6.75,0,1,1,1.25,8,.625.625,0,0,0,0,8a8,8,0,0,0,13.657,5.657,8,8,0,0,0,0-11.314ZM5.719,1.594A.625.625,0,1,0,5.094.969.625.625,0,0,0,5.719,1.594ZM3.656,2.656a.625.625,0,1,0-.625-.625A.625.625,0,0,0,3.656,2.656ZM2.031,4.281a.625.625,0,1,0-.625-.625A.625.625,0,0,0,2.031,4.281ZM.969,6.344a.625.625,0,1,0-.625-.625A.625.625,0,0,0,.969,6.344Zm0,0" transform="translate(2 2)" fill="#888"/>
</svg>
