<svg xmlns="http://www.w3.org/2000/svg" width="12.8" height="12" viewBox="0 0 12.8 12">
  <path id="icon_star_fill" data-name="icon star fill" d="M9.018,2.877l1.444,2.868a.688.688,0,0,0,.519.37l3.228.46a.672.672,0,0,1,.382,1.152L12.255,9.958a.668.668,0,0,0-.2.6l.551,3.152a.687.687,0,0,1-1,.712L8.721,12.933a.7.7,0,0,0-.642,0L5.192,14.421a.687.687,0,0,1-1-.712l.551-3.152a.668.668,0,0,0-.2-.6L2.209,7.726a.672.672,0,0,1,.382-1.152l3.228-.46a.688.688,0,0,0,.519-.37L7.782,2.877A.7.7,0,0,1,9.018,2.877Z" transform="translate(-2 -2.5)" fill="#d6d6d6"/>
</svg>
