<svg xmlns="http://www.w3.org/2000/svg" width="12.558" height="12" viewBox="0 0 12.558 12">
  
  <path id="icon_star_fill" data-name="icon star fill" d="M9.018,2.877l1.444,2.868a.688.688,0,0,0,.519.37l3.228.46a.672.672,0,0,1,.382,1.152L12.255,9.958a.668.668,0,0,0-.2.6l.551,3.152a.687.687,0,0,1-1,.712L8.721,12.933a.7.7,0,0,0-.642,0L5.192,14.421a.687.687,0,0,1-1-.712l.551-3.152a.668.668,0,0,0-.2-.6L2.209,7.726a.672.672,0,0,1,.382-1.152l3.228-.46a.688.688,0,0,0,.519-.37L7.782,2.877A.7.7,0,0,1,9.018,2.877Z" transform="translate(-2 -2.5)" fill="#fff"/>
  <path id="icon_start_unfill" data-name="icon start unfill" d="M8.279,2.35a.589.589,0,0,1,.528.328l1.621,3.285,3.626.53a.589.589,0,0,1,.326,1l-2.623,2.555.619,3.61a.589.589,0,0,1-.854.621L8.279,12.577,5.036,14.282a.589.589,0,0,1-.854-.621l.619-3.61L2.178,7.5a.589.589,0,0,1,.326-1l3.626-.53L7.751,2.678A.589.589,0,0,1,8.279,2.35Zm0,1.919L7.048,6.761a.589.589,0,0,1-.443.322l-2.752.4L5.844,9.425a.589.589,0,0,1,.169.521l-.47,2.739L8,11.391a.588.588,0,0,1,.548,0l2.461,1.294-.47-2.739a.589.589,0,0,1,.169-.521L12.7,7.485l-2.752-.4a.589.589,0,0,1-.443-.322Z" transform="translate(-2 -2.35)" fill="#d6d6d6" fill-rule="evenodd" />
</svg>