<svg width="14" height="14" fill="none" xmlns="http://www.w3.org/2000/svg"><path fill-rule="evenodd" clip-rule="evenodd" d="M12.688 9.188h-3.5v3.5h3.5v-3.5Zm-3.5-1.313h3.5a1.313 1.313 0 0 1 1.313 1.313v3.5a1.313 1.313 0 0 1-1.312 1.313h-3.5a1.312 1.312 0 0 1-1.314-1.313v-3.5a1.313 1.313 0 0 1 1.313-1.313ZM4.813 1.313h-3.5v3.5h3.5v-3.5Zm7.875 0h-3.5v3.5h3.5v-3.5ZM4.813 9.188h-3.5v3.5h3.5v-3.5Zm0-9.188h-3.5A1.312 1.312 0 0 0 0 1.313v3.5a1.312 1.312 0 0 0 1.313 1.312h3.5a1.312 1.312 0 0 0 1.312-1.312v-3.5A1.312 1.312 0 0 0 4.813 0Zm7.875 0h-3.5a1.313 1.313 0 0 0-1.313 1.313v3.5a1.313 1.313 0 0 0 1.313 1.313h3.5A1.313 1.313 0 0 0 14 4.813v-3.5A1.313 1.313 0 0 0 12.688 0ZM1.313 7.875h3.5a1.313 1.313 0 0 1 1.313 1.313v3.5A1.313 1.313 0 0 1 4.813 14h-3.5A1.313 1.313 0 0 1 0 12.688v-3.5a1.313 1.313 0 0 1 1.313-1.313Z" fill="#888"/></svg>