<svg width="15" height="17" viewBox="0 0 15 17" fill="none" xmlns="http://www.w3.org/2000/svg">
<path fill-rule="evenodd" clip-rule="evenodd" d="M4.01754 4.01802C4.74226 3.29339 5.66556 2.79993 6.67071 2.60002C7.67586 2.40011 8.71772 2.50273 9.66455 2.8949C10.6114 3.28708 11.4207 3.9512 11.9901 4.80329C12.5595 5.65538 12.8635 6.65718 12.8635 7.68202C12.8635 9.68702 11.5565 11.647 10.1035 13.182C9.4915 13.824 8.83595 14.4231 8.14154 14.975C7.96654 15.114 7.81154 15.233 7.68154 15.33C7.55154 15.23 7.39654 15.115 7.22154 14.975C6.52705 14.4225 5.8715 13.8227 5.25954 13.18C3.80654 11.646 2.49954 9.68702 2.49954 7.68002C2.50019 6.30641 3.04619 4.98925 4.01754 4.01802ZM7.26454 16.874L7.68054 16.25L8.09654 16.874C7.9733 16.956 7.82857 16.9998 7.68054 16.9998C7.53252 16.9998 7.38779 16.956 7.26454 16.874ZM7.26454 16.874L7.68054 16.25C8.09654 16.874 8.09754 16.874 8.09754 16.873L8.11254 16.863L8.16754 16.825C8.21454 16.792 8.28254 16.745 8.36754 16.683C8.53854 16.56 8.77954 16.383 9.06754 16.151C9.81655 15.5555 10.5236 14.9089 11.1835 14.216C12.6965 12.616 14.3545 10.294 14.3545 7.68602C14.3878 6.7885 14.2397 5.8935 13.9192 5.05449C13.5988 4.21548 13.1124 3.44969 12.4893 2.80288C11.8662 2.15608 11.1191 1.64152 10.2926 1.28998C9.46611 0.938431 8.57725 0.757105 7.67912 0.756836C6.78099 0.756567 5.89202 0.937361 5.06534 1.28841C4.23865 1.63946 3.49122 2.15357 2.86772 2.8C2.24421 3.44644 1.75742 4.21194 1.43643 5.05075C1.11545 5.88956 0.966858 6.78448 0.999544 7.68202C0.999544 10.29 2.65854 12.615 4.17054 14.212C4.83053 14.9049 5.53754 15.5515 6.28654 16.147C6.57454 16.377 6.81554 16.556 6.98654 16.679C7.07154 16.741 7.13954 16.788 7.18654 16.821L7.24154 16.859L7.25654 16.869L7.26454 16.874ZM6.45454 7.68202C6.45454 7.43934 6.52651 7.20211 6.66133 7.00033C6.79616 6.79855 6.98779 6.64129 7.21199 6.54842C7.4362 6.45555 7.68291 6.43125 7.92092 6.47859C8.15894 6.52594 8.37756 6.6428 8.54916 6.8144C8.72076 6.986 8.83762 7.20463 8.88497 7.44264C8.93231 7.68066 8.90801 7.92736 8.81514 8.15157C8.72228 8.37577 8.56501 8.56741 8.36323 8.70223C8.16145 8.83706 7.92422 8.90902 7.68154 8.90902C7.52041 8.90902 7.36086 8.87728 7.21199 8.81562C7.06312 8.75395 6.92786 8.66357 6.81392 8.54964C6.69999 8.4357 6.60961 8.30044 6.54794 8.15157C6.48628 8.0027 6.45454 7.84315 6.45454 7.68202ZM7.68154 4.95502C7.14219 4.95502 6.61496 5.11495 6.1665 5.4146C5.71805 5.71425 5.36853 6.14015 5.16212 6.63844C4.95572 7.13673 4.90172 7.68504 5.00694 8.21403C5.11216 8.74301 5.37189 9.22892 5.75326 9.6103C6.13464 9.99168 6.62055 10.2514 7.14953 10.3566C7.67852 10.4618 8.22683 10.4078 8.72512 10.2014C9.22342 9.99504 9.64932 9.64551 9.94896 9.19706C10.2486 8.7486 10.4085 8.22137 10.4085 7.68202C10.4085 7.3239 10.338 6.96929 10.201 6.63844C10.0639 6.30758 9.86305 6.00696 9.60982 5.75374C9.3566 5.50051 9.05598 5.29964 8.72512 5.1626C8.39427 5.02555 8.03966 4.95502 7.68154 4.95502Z" fill="#888888"/>
</svg>
