<svg xmlns="http://www.w3.org/2000/svg" width="16" height="16" viewBox="0 0 16 16">
  <path id="start-frame-5" d="M10,2.35a.748.748,0,0,1,.673.437l2.066,4.38,4.62.707a.76.76,0,0,1,.6.535.81.81,0,0,1-.19.8L14.431,12.62l.789,4.813a.8.8,0,0,1-.3.768.722.722,0,0,1-.79.06L10,15.986,5.869,18.26a.722.722,0,0,1-.79-.06.8.8,0,0,1-.3-.768l.789-4.813L2.227,9.213a.81.81,0,0,1-.19-.8.76.76,0,0,1,.6-.535l4.62-.707,2.066-4.38A.747.747,0,0,1,10,2.35Zm0,2.558L8.432,8.232a.753.753,0,0,1-.564.429L4.361,9.2,6.9,11.783a.808.808,0,0,1,.216.695l-.6,3.652L9.651,14.4a.72.72,0,0,1,.7,0l3.135,1.725-.6-3.652a.808.808,0,0,1,.216-.695L15.639,9.2l-3.507-.536a.754.754,0,0,1-.564-.429Z" transform="translate(-2 -2.35)" fill="#fff" fill-rule="evenodd"/>
</svg>
