<svg width="14" height="13" viewBox="0 0 14 13" fill="none" xmlns="http://www.w3.org/2000/svg">
<path fill-rule="evenodd" clip-rule="evenodd" d="M6.94956 0.0639467C7.03344 0.0215827 7.12609 -0.000488281 7.22006 -0.000488281C7.31403 -0.000488281 7.40669 0.0215827 7.49056 0.0639467L13.3316 3.00995C13.432 3.06124 13.5163 3.13928 13.5751 3.23546C13.634 3.33163 13.6651 3.44219 13.6651 3.55495C13.6651 3.6677 13.634 3.77827 13.5751 3.87444C13.5163 3.97061 13.432 4.04865 13.3316 4.09995L7.49056 7.04495C7.40669 7.08731 7.31403 7.10938 7.22006 7.10938C7.12609 7.10938 7.03344 7.08731 6.94956 7.04495L1.10756 4.09995C1.00715 4.04865 0.922863 3.97061 0.863999 3.87444C0.805136 3.77827 0.773985 3.6677 0.773985 3.55495C0.773985 3.44219 0.805136 3.33163 0.863999 3.23546C0.922863 3.13928 1.00715 3.06124 1.10756 3.00995L6.94956 0.0639467ZM2.72956 3.55395L7.21956 5.81895L11.7106 3.55495L7.21956 1.29095L2.72956 3.55395ZM0.837563 9.17295C0.872365 9.1013 0.921085 9.0373 0.980881 8.98468C1.04068 8.93206 1.11035 8.89187 1.18584 8.86646C1.26133 8.84105 1.34113 8.83092 1.42057 8.83667C1.50001 8.84242 1.57752 8.86393 1.64856 8.89995L7.22056 11.7089L12.7916 8.89995C12.8626 8.86393 12.9401 8.84242 13.0196 8.83667C13.099 8.83092 13.1788 8.84105 13.2543 8.86646C13.3298 8.89187 13.3994 8.93206 13.4592 8.98468C13.519 9.0373 13.5678 9.1013 13.6026 9.17295C13.6744 9.31736 13.6864 9.48431 13.6358 9.63749C13.5853 9.79068 13.4763 9.9177 13.3326 9.99095L7.49056 12.9359C7.40669 12.9783 7.31403 13.0004 7.22006 13.0004C7.12609 13.0004 7.03344 12.9783 6.94956 12.9359L1.10756 9.98995C0.964096 9.9167 0.85529 9.78985 0.804744 9.63691C0.754199 9.48396 0.765991 9.31726 0.837563 9.17295ZM1.64856 5.95495C1.57752 5.91893 1.50001 5.89742 1.42057 5.89167C1.34113 5.88592 1.26133 5.89605 1.18584 5.92146C1.11035 5.94687 1.04068 5.98706 0.980881 6.03968C0.921085 6.0923 0.872365 6.1563 0.837563 6.22795C0.765678 6.37236 0.753716 6.53931 0.804278 6.69249C0.85484 6.84568 0.963837 6.9727 1.10756 7.04595L6.94956 9.98995C7.03344 10.0323 7.12609 10.0544 7.22006 10.0544C7.31403 10.0544 7.40669 10.0323 7.49056 9.98995L13.3326 7.04495C13.4763 6.9717 13.5853 6.84468 13.6358 6.69149C13.6864 6.53831 13.6744 6.37136 13.6026 6.22695C13.5678 6.1553 13.519 6.0913 13.4592 6.03868C13.3994 5.98606 13.3298 5.94587 13.2543 5.92046C13.1788 5.89505 13.099 5.88492 13.0196 5.89067C12.9401 5.89642 12.8626 5.91793 12.7916 5.95395L7.21956 8.76395L1.64856 5.95495Z" fill="#888888"/>
</svg>
