<svg width="13" height="15" viewBox="0 0 13 15" fill="none" xmlns="http://www.w3.org/2000/svg">
<path fill-rule="evenodd" clip-rule="evenodd" d="M3.384 0.999914C2.58219 0.978615 1.7831 1.10192 1.025 1.36391C0.61 1.52091 0 1.79991 0 2.29091V14.3439C0.00271198 14.433 0.0229905 14.5207 0.0596716 14.6019C0.0963528 14.6832 0.148714 14.7564 0.213752 14.8173C0.27879 14.8783 0.355224 14.9258 0.438667 14.9571C0.52211 14.9884 0.610919 15.003 0.7 14.9999C0.789081 15.003 0.877891 14.9884 0.961334 14.9571C1.04478 14.9258 1.12121 14.8783 1.18625 14.8173C1.25129 14.7564 1.30365 14.6832 1.34033 14.6019C1.37701 14.5207 1.39729 14.433 1.4 14.3439V10.2579C2.03318 10.0068 2.71256 9.89324 3.393 9.92491C4.23299 9.96627 5.05769 10.1654 5.824 10.5119C6.75664 10.9166 7.75538 11.1474 8.771 11.1929C9.57281 11.2142 10.3719 11.0909 11.13 10.8289C11.548 10.6709 12.155 10.3989 12.155 9.90191V2.29091C12.1529 2.15842 12.1109 2.02965 12.0343 1.9215C11.9578 1.81335 11.8503 1.73088 11.726 1.68491C11.6024 1.63648 11.4679 1.62281 11.3371 1.64537C11.2063 1.66793 11.0842 1.72588 10.984 1.81291C10.8656 1.89324 10.7363 1.95622 10.6 1.99991C10.007 2.19897 9.38318 2.29041 8.758 2.26991C7.91801 2.22856 7.09331 2.02942 6.327 1.68291C5.39575 1.278 4.3984 1.04654 3.384 0.999914ZM1.391 2.64591C1.434 2.62591 1.484 2.60491 1.542 2.58291C2.135 2.38386 2.75882 2.29242 3.384 2.31291C4.22399 2.35427 5.04869 2.55341 5.815 2.89991C6.74762 3.30462 7.74637 3.53541 8.762 3.58091C9.4344 3.59177 10.1051 3.50966 10.755 3.33691V9.54791C10.1218 9.79907 9.44244 9.91259 8.762 9.88091C7.92201 9.83956 7.09731 9.64042 6.331 9.29391C5.39837 8.88923 4.39962 8.65844 3.384 8.61291C2.7116 8.60212 2.04094 8.68423 1.391 8.85691V2.64591Z" fill="#888888"/>
</svg>
