<svg width="13" height="9" viewBox="0 0 13 9" fill="none" xmlns="http://www.w3.org/2000/svg">
<path fill-rule="evenodd" clip-rule="evenodd" d="M0.5 0.75C0.5 0.551088 0.579018 0.360322 0.71967 0.21967C0.860322 0.0790175 1.05109 0 1.25 0H11.75C11.9489 0 12.1397 0.0790175 12.2803 0.21967C12.421 0.360322 12.5 0.551088 12.5 0.75C12.5 0.948912 12.421 1.13968 12.2803 1.28033C12.1397 1.42098 11.9489 1.5 11.75 1.5H1.25C1.05109 1.5 0.860322 1.42098 0.71967 1.28033C0.579018 1.13968 0.5 0.948912 0.5 0.75ZM0.5 8.25C0.5 8.05109 0.579018 7.86032 0.71967 7.71967C0.860322 7.57902 1.05109 7.5 1.25 7.5H8C8.19891 7.5 8.38968 7.57902 8.53033 7.71967C8.67098 7.86032 8.75 8.05109 8.75 8.25C8.75 8.44891 8.67098 8.63968 8.53033 8.78033C8.38968 8.92098 8.19891 9 8 9H1.25C1.05109 9 0.860322 8.92098 0.71967 8.78033C0.579018 8.63968 0.5 8.44891 0.5 8.25ZM1.25 3.75C1.05109 3.75 0.860322 3.82902 0.71967 3.96967C0.579018 4.11032 0.5 4.30109 0.5 4.5C0.5 4.69891 0.579018 4.88968 0.71967 5.03033C0.860322 5.17098 1.05109 5.25 1.25 5.25H11.75C11.9489 5.25 12.1397 5.17098 12.2803 5.03033C12.421 4.88968 12.5 4.69891 12.5 4.5C12.5 4.30109 12.421 4.11032 12.2803 3.96967C12.1397 3.82902 11.9489 3.75 11.75 3.75H1.25Z" fill="#888888"/>
</svg>
