<svg width="16" height="15" viewBox="0 0 16 15" fill="none" xmlns="http://www.w3.org/2000/svg">
<path fill-rule="evenodd" clip-rule="evenodd" d="M2.42922 6.429C2.42922 5.44009 2.72246 4.47339 3.27187 3.65115C3.82128 2.8289 4.60217 2.18804 5.5158 1.8096C6.42943 1.43116 7.43477 1.33215 8.40467 1.52507C9.37458 1.718 10.2655 2.1942 10.9648 2.89347C11.664 3.59273 12.1402 4.48364 12.3331 5.45355C12.5261 6.42345 12.4271 7.42879 12.0486 8.34242C11.6702 9.25605 11.0293 10.0369 10.2071 10.5863C9.38482 11.1358 8.41813 11.429 7.42922 11.429C6.10314 11.429 4.83137 10.9022 3.89368 9.96453C2.956 9.02685 2.42922 7.75508 2.42922 6.429ZM7.42922 3.66557e-07C6.40201 -0.000346475 5.38966 0.245451 4.47698 0.716807C3.5643 1.18816 2.77785 1.87135 2.1835 2.70916C1.58915 3.54696 1.20421 4.51499 1.06091 5.53215C0.917614 6.54932 1.02014 7.58602 1.35989 8.55542C1.69965 9.52482 2.26674 10.3987 3.01368 11.1039C3.76062 11.809 4.66565 12.3249 5.65298 12.6084C6.64031 12.8918 7.68119 12.9346 8.68844 12.733C9.69568 12.5315 10.64 12.0915 11.4422 11.45L14.7812 14.789C14.8475 14.8553 14.9263 14.9079 15.0129 14.9438C15.0996 14.9797 15.1924 14.9982 15.2862 14.9982C15.38 14.9982 15.4729 14.9797 15.5595 14.9438C15.6462 14.9079 15.7249 14.8553 15.7912 14.789C15.8575 14.7227 15.9101 14.644 15.946 14.5573C15.9819 14.4707 16.0004 14.3778 16.0004 14.284C16.0004 14.1902 15.9819 14.0973 15.946 14.0107C15.9101 13.924 15.8575 13.8453 15.7912 13.779L12.4502 10.442C13.2058 9.49627 13.6791 8.35642 13.8155 7.15362C13.952 5.95082 13.746 4.73393 13.2215 3.64299C12.6969 2.55204 11.875 1.63136 10.8503 0.986883C9.82556 0.342409 8.63974 0.00032711 7.42922 3.66557e-07Z" fill="#888888"/>
</svg>
