<svg xmlns="http://www.w3.org/2000/svg" width="16.001" height="16.001" viewBox="0 0 16.001 16.001">
  <g id="Chat_Notification" data-name="Chat + Notification" transform="translate(0 -1.5)">
    <path id="Path_13" data-name="Path 13"
      d="M3.752,5.752A.861.861,0,0,1,4.361,5.5H15.64a.861.861,0,0,1,.861.861v8.056a.861.861,0,0,1-.861.861H5.972a.75.75,0,0,0-.53.22L3.5,17.44V6.361A.861.861,0,0,1,3.752,5.752ZM4.361,4A2.361,2.361,0,0,0,2,6.361v12.89a.75.75,0,0,0,1.28.53l3-3H15.64A2.361,2.361,0,0,0,18,14.417V6.361A2.361,2.361,0,0,0,15.64,4ZM5.743,8a.75.75,0,0,0,0,1.5H14.25a.75.75,0,0,0,0-1.5Zm.007,3a.75.75,0,0,0,0,1.5h5.5a.75.75,0,0,0,0-1.5Z"
      transform="translate(-2 -2.5)" fill="#888" fill-rule="evenodd" />
  </g>
</svg>