<svg xmlns="http://www.w3.org/2000/svg" width="16" height="16" viewBox="0 0 16 16">
    <path id="icon_Upload" data-name="icon Upload"
        d="M10.285,2.056a.751.751,0,0,0-.8.147l-.019.018L5.442,6.247A.75.75,0,0,0,6.5,7.308L9.25,4.561v7.856a.75.75,0,0,0,1.5,0V4.561L13.5,7.308a.75.75,0,1,0,1.061-1.061L10.53,2.22A.747.747,0,0,0,10.285,2.056ZM2.75,11.667a.75.75,0,0,1,.75.75v3.222a.861.861,0,0,0,.861.861H15.639a.861.861,0,0,0,.861-.861V12.417a.75.75,0,0,1,1.5,0v3.222A2.361,2.361,0,0,1,15.639,18H4.361A2.361,2.361,0,0,1,2,15.639V12.417A.75.75,0,0,1,2.75,11.667Z"
        transform="translate(-2 -2)" fill="#888" fill-rule="evenodd" />
</svg>