<svg width="16" height="8" viewBox="0 0 16 8" fill="none" xmlns="http://www.w3.org/2000/svg">
<path d="M0.292328 0.405992C0.449608 0.285025 0.648414 0.231312 0.845213 0.256614C1.04201 0.281917 1.22076 0.384174 1.34233 0.540992L1.36233 0.564992C1.38233 0.587992 1.41433 0.625992 1.46233 0.674992C1.59684 0.820787 1.73869 0.959633 1.88733 1.09099C2.4267 1.56645 3.02697 1.96798 3.67233 2.28499C5.02051 2.93832 6.50231 3.26871 8.00033 3.24999C9.49835 3.26871 10.9802 2.93832 12.3283 2.28499C12.9736 1.9686 13.5738 1.56775 14.1133 1.09299C14.2619 0.961611 14.4038 0.822765 14.5383 0.676992C14.5833 0.627992 14.6153 0.589992 14.6383 0.566992L14.6583 0.542992C14.7805 0.387364 14.9593 0.286341 15.1557 0.261934C15.352 0.237527 15.5501 0.291714 15.7067 0.412688C15.8633 0.533663 15.9657 0.711622 15.9917 0.907791C16.0177 1.10396 15.9651 1.30244 15.8453 1.45999V1.46499L15.8333 1.47999L15.7933 1.52799C15.7603 1.56799 15.7133 1.62199 15.6523 1.68899C15.4831 1.87268 15.3045 2.04757 15.1173 2.21299C14.669 2.60936 14.1838 2.96196 13.6683 3.26599L14.8893 5.65799C14.9341 5.74571 14.9612 5.8414 14.969 5.93958C14.9768 6.03776 14.9652 6.13652 14.9348 6.23022C14.9044 6.32391 14.8559 6.41071 14.792 6.48565C14.7281 6.56059 14.6501 6.62221 14.5623 6.66699C14.3852 6.75743 14.1793 6.77379 13.9901 6.71246C13.8009 6.65114 13.6438 6.51716 13.5533 6.33999L12.3173 3.93399C11.1801 4.39318 9.97493 4.66146 8.75033 4.72799V6.99999C8.75033 7.1989 8.67131 7.38967 8.53066 7.53032C8.39001 7.67097 8.19924 7.74999 8.00033 7.74999C7.80142 7.74999 7.61065 7.67097 7.47 7.53032C7.32935 7.38967 7.25033 7.1989 7.25033 6.99999V4.72799C6.02573 4.66144 4.82053 4.39317 3.68333 3.93399L2.45333 6.34099C2.36289 6.51816 2.20578 6.65214 2.01655 6.71346C1.82733 6.77479 1.62149 6.75843 1.44433 6.66799C1.26716 6.57755 1.13318 6.42044 1.07186 6.23122C1.01053 6.04199 1.02689 5.83616 1.11733 5.65899L2.33933 3.26699C1.82387 2.96297 1.33867 2.61037 0.890328 2.21399C0.703183 2.04855 0.524617 1.87366 0.355328 1.68999C0.294328 1.62299 0.247328 1.56899 0.214328 1.52899L0.174328 1.48099L0.162328 1.46599V1.46099C0.101511 1.38322 0.0566263 1.29421 0.0302422 1.19907C0.00385818 1.10393 -0.0035074 1.00453 0.00856712 0.906536C0.0206416 0.808546 0.0519194 0.7139 0.10061 0.628011C0.149301 0.542122 0.21445 0.466677 0.292328 0.405992Z" fill="#333333"/>
</svg>
