<svg width="16" height="13" viewBox="0 0 16 13" fill="none" xmlns="http://www.w3.org/2000/svg">
<path fill-rule="evenodd" clip-rule="evenodd" d="M5.56053 3.84964C5.87028 3.32373 6.32623 2.8992 6.87289 2.62774C7.41955 2.35628 8.03333 2.24958 8.63953 2.32064C9.20766 2.34348 9.74897 2.56836 10.166 2.95481C10.5831 3.34126 10.8485 3.8639 10.9145 4.42864C10.935 4.58673 11.0124 4.73195 11.1322 4.83706C11.2521 4.94218 11.4061 4.99998 11.5655 4.99964C12.1214 5.01351 12.6504 5.24179 13.0418 5.63674C13.4332 6.03168 13.6567 6.56268 13.6655 7.11864C13.7671 7.65942 13.6853 8.21862 13.4332 8.70768C13.181 9.19674 12.773 9.5877 12.2735 9.81864H10.3315C10.2419 9.8116 10.1518 9.82318 10.0668 9.85266C9.98184 9.88213 9.9039 9.92886 9.83788 9.98991C9.77185 10.051 9.71916 10.125 9.68313 10.2074C9.6471 10.2898 9.6285 10.3787 9.6285 10.4686C9.6285 10.5586 9.6471 10.6475 9.68313 10.7299C9.71916 10.8123 9.77185 10.8863 9.83788 10.9474C9.9039 11.0084 9.98184 11.0552 10.0668 11.0846C10.1518 11.1141 10.2419 11.1257 10.3315 11.1186H12.3875C12.4582 11.1188 12.5284 11.1077 12.5955 11.0856C13.4062 10.7799 14.086 10.2027 14.519 9.45229C14.952 8.70184 15.1116 7.82451 14.9705 6.96964C14.9219 6.18984 14.6147 5.44852 14.0974 4.86297C13.5801 4.27741 12.8824 3.88107 12.1145 3.73664C11.908 2.99366 11.4754 2.33335 10.8768 1.84723C10.2781 1.36112 9.54308 1.07329 8.77353 1.02364C8.01574 0.941057 7.24938 1.05172 6.54592 1.34531C5.84245 1.63891 5.22479 2.10586 4.75053 2.70264C4.38757 2.59492 4.00176 2.59055 3.63645 2.69C3.27114 2.78945 2.9408 2.9888 2.68253 3.26564C2.4247 3.53249 2.23832 3.86005 2.14061 4.21801C2.0429 4.57598 2.03703 4.9528 2.12353 5.31364C1.71333 5.66532 1.39776 6.11415 1.20561 6.61915C1.01346 7.12415 0.950865 7.66923 1.02353 8.20464C1.06302 8.838 1.28337 9.44674 1.65843 9.95864C2.03349 10.4705 2.54752 10.8641 3.13953 11.0926C3.20665 11.1147 3.27688 11.1258 3.34753 11.1256H5.39953C5.48918 11.1327 5.57931 11.1211 5.66426 11.0916C5.74922 11.0622 5.82716 11.0154 5.89318 10.9544C5.95921 10.8933 6.01189 10.8193 6.04793 10.7369C6.08396 10.6545 6.10256 10.5656 6.10256 10.4756C6.10256 10.3857 6.08396 10.2968 6.04793 10.2144C6.01189 10.132 5.95921 10.058 5.89318 9.99691C5.82716 9.93586 5.74922 9.88913 5.66426 9.85966C5.57931 9.83018 5.48918 9.8186 5.39953 9.82564H3.45953C3.13239 9.66114 2.85492 9.41252 2.65563 9.10533C2.45634 8.79813 2.34241 8.44343 2.32553 8.07764C2.25656 7.70481 2.30562 7.31975 2.46587 6.97613C2.62612 6.6325 2.88958 6.34743 3.21953 6.16064C3.3001 6.12175 3.37177 6.06665 3.43006 5.99878C3.48835 5.93091 3.53201 5.85175 3.55829 5.76623C3.58457 5.68071 3.59292 5.59069 3.58281 5.5018C3.5727 5.41291 3.54435 5.32707 3.49953 5.24964C3.3987 5.07986 3.35706 4.88142 3.38112 4.68543C3.40519 4.48944 3.49362 4.30698 3.63253 4.16664C3.75491 4.02795 3.92561 3.9412 4.10978 3.92411C4.29396 3.90701 4.47771 3.96085 4.62353 4.07464C4.69891 4.1245 4.78375 4.15831 4.87275 4.17399C4.96176 4.18966 5.05304 4.18686 5.14092 4.16576C5.22881 4.14466 5.31141 4.1057 5.38359 4.05132C5.45578 3.99694 5.516 3.92829 5.56053 3.84964ZM8.32953 5.52064L7.86453 5.05964L7.39953 5.52064L5.34553 7.56264C5.28464 7.62298 5.2363 7.69479 5.20331 7.77391C5.17033 7.85304 5.15335 7.93791 5.15335 8.02364C5.15335 8.10937 5.17033 8.19424 5.20331 8.27337C5.2363 8.35249 5.28464 8.4243 5.34553 8.48464C5.46895 8.60702 5.63572 8.67568 5.80953 8.67568C5.98334 8.67568 6.15011 8.60702 6.27353 8.48464L7.20953 7.55564V11.6996C7.20953 11.8738 7.2787 12.0407 7.40181 12.1639C7.52493 12.287 7.69192 12.3561 7.86603 12.3561C8.04014 12.3561 8.20713 12.287 8.33025 12.1639C8.45336 12.0407 8.52253 11.8738 8.52253 11.6996V7.55564L9.45853 8.48464C9.58195 8.60702 9.74872 8.67568 9.92253 8.67568C10.0963 8.67568 10.2631 8.60702 10.3865 8.48464C10.4474 8.4243 10.4958 8.35249 10.5287 8.27337C10.5617 8.19424 10.5787 8.10937 10.5787 8.02364C10.5787 7.93791 10.5617 7.85304 10.5287 7.77391C10.4958 7.69479 10.4474 7.62298 10.3865 7.56264L8.32953 5.52064Z" fill="#888888"/>
</svg>
