<svg width="16" height="12" viewBox="0 0 16 12" fill="none" xmlns="http://www.w3.org/2000/svg">
<path fill-rule="evenodd" clip-rule="evenodd" d="M1.86407 6.415C1.76407 6.255 1.67507 6.115 1.60707 6C1.67507 5.885 1.76107 5.744 1.86407 5.585C2.25557 4.98016 2.69998 4.41127 3.19207 3.885C3.7867 3.17808 4.52039 2.60102 5.34751 2.18969C6.17464 1.77837 7.07753 1.54156 8.00006 1.494C8.92252 1.54144 9.82537 1.77809 10.6525 2.18924C11.4796 2.60039 12.2133 3.17726 12.8081 3.884C13.3001 4.4103 13.7445 4.97919 14.1361 5.584C14.2361 5.744 14.3251 5.884 14.3931 5.999C14.3251 6.114 14.2391 6.255 14.1361 6.414C13.7445 7.01879 13.3001 7.58769 12.8081 8.114C12.2135 8.8211 11.4799 9.39835 10.6527 9.80985C9.82561 10.2214 8.92267 10.4583 8.00006 10.506C7.07761 10.4586 6.17476 10.2219 5.34764 9.81076C4.52052 9.39961 3.78679 8.82274 3.19207 8.116C2.69995 7.5894 2.25554 7.02017 1.86407 6.415ZM15.9211 5.665L15.2501 6L15.9211 6.335L15.9131 6.35L15.8861 6.402C15.8631 6.446 15.8291 6.508 15.7861 6.586C15.6981 6.741 15.5691 6.96 15.4011 7.22C14.9587 7.90236 14.4564 8.54391 13.9001 9.137C13.1656 9.99343 12.2628 10.6896 11.2478 11.1821C10.2328 11.6747 9.1273 11.9531 8.00006 12C6.87282 11.9531 5.76729 11.6747 4.75227 11.1822C3.73724 10.6897 2.83445 9.99348 2.10007 9.137C1.54433 8.54579 1.04235 7.90626 0.600065 7.226C0.431065 6.966 0.300065 6.747 0.215065 6.592C0.171065 6.514 0.137065 6.452 0.115065 6.408L0.0880654 6.356L0.0800653 6.341L0.750065 6L0.0790653 5.665L0.0870652 5.65L0.114065 5.598C0.137065 5.554 0.171065 5.492 0.214065 5.414C0.302065 5.259 0.431065 5.04 0.599065 4.78C1.04139 4.09763 1.54372 3.45609 2.10007 2.863C2.83449 2.00657 3.73729 1.31043 4.75231 0.817886C5.76732 0.325345 6.87283 0.0469433 8.00006 0C9.1273 0.0469433 10.2328 0.325345 11.2478 0.817886C12.2628 1.31043 13.1656 2.00657 13.9001 2.863C14.4558 3.45425 14.9577 4.09377 15.4001 4.774C15.5691 5.034 15.7001 5.253 15.7851 5.408C15.8291 5.486 15.8621 5.548 15.8851 5.592L15.9121 5.644L15.9201 5.659L15.9211 5.665ZM15.2501 6L15.9211 5.666C15.9731 5.76964 16.0002 5.88402 16.0002 6C16.0002 6.11598 15.9731 6.23036 15.9211 6.334L15.2501 6ZM0.0790653 5.666L0.750065 6L0.0790653 6.334C0.0270736 6.23034 0 6.11597 0 6C0 5.88403 0.0270736 5.76966 0.0790653 5.666ZM6.77307 6C6.77227 5.75715 6.84356 5.51953 6.9779 5.31723C7.11225 5.11492 7.3036 4.95703 7.52773 4.86355C7.75187 4.77007 7.9987 4.7452 8.23698 4.79209C8.47526 4.83898 8.69426 4.95553 8.86626 5.12696C9.03826 5.2984 9.15552 5.51703 9.20319 5.75515C9.25086 5.99327 9.22679 6.24019 9.13404 6.46462C9.04129 6.68906 8.88403 6.88093 8.68216 7.01593C8.4803 7.15093 8.24291 7.223 8.00006 7.223C7.8392 7.22326 7.67985 7.19184 7.53113 7.13052C7.3824 7.0692 7.24721 6.97919 7.13327 6.86562C7.01934 6.75205 6.92888 6.61716 6.86708 6.46864C6.80527 6.32011 6.77333 6.16087 6.77307 6ZM8.00006 3.283C7.46312 3.28498 6.93881 3.446 6.49332 3.74575C6.04782 4.0455 5.70114 4.47052 5.49703 4.96716C5.29292 5.4638 5.24053 6.00978 5.3465 6.53616C5.45246 7.06255 5.71201 7.54574 6.09239 7.92472C6.47276 8.3037 6.9569 8.56147 7.48367 8.6655C8.01044 8.76953 8.55623 8.71514 9.05211 8.50921C9.548 8.30328 9.97175 7.95503 10.2699 7.50844C10.568 7.06185 10.7271 6.53695 10.7271 6C10.7264 5.64254 10.6554 5.28871 10.518 4.95872C10.3806 4.62872 10.1795 4.32902 9.92628 4.07672C9.67305 3.82442 9.37261 3.62447 9.04211 3.48829C8.71161 3.3521 8.35752 3.28234 8.00006 3.283Z" fill="#333333"/>
</svg>
