<svg xmlns="http://www.w3.org/2000/svg" width="16" height="16" viewBox="0 0 16 16">
  <g id="start-colour-5" transform="translate(-2 -2.5)" fill="#fff">
    <path d="M 5.588708877563477 18.00000190734863 C 5.49186897277832 18.00000190734863 5.392369270324707 17.95090103149414 5.322528839111328 17.86866188049316 C 5.27686882019043 17.81490135192871 5.204519271850586 17.69882202148438 5.232969284057617 17.52551078796387 L 5.922179222106934 13.32287120819092 C 5.995998859405518 12.87430095672607 5.852438926696777 12.4149808883667 5.538118839263916 12.09444141387939 L 2.618019104003906 9.118190765380859 C 2.452229022979736 8.949121475219727 2.50377893447876 8.743071556091309 2.523529052734375 8.683951377868652 C 2.546149015426636 8.61622142791748 2.619709014892578 8.455501556396484 2.81364893913269 8.426100730895996 L 6.849218845367432 7.812911033630371 C 7.29482889175415 7.745311260223389 7.678379058837891 7.456060886383057 7.875099182128906 7.039181232452393 L 9.679689407348633 3.215691089630127 C 9.771478652954102 3.021001100540161 9.934168815612793 3.000001192092896 9.999869346618652 3.000001192092896 C 10.06560897827148 3.000001192092896 10.22843933105469 3.021021127700806 10.32032871246338 3.215701103210449 L 12.12491893768311 7.039211273193359 C 12.32164859771729 7.456070899963379 12.70519924163818 7.745311260223389 13.15089893341064 7.812921047210693 L 17.1861686706543 8.426080703735352 C 17.38031959533691 8.455600738525391 17.45390892028809 8.616551399230957 17.47653961181641 8.684370994567871 C 17.49623870849609 8.743451118469238 17.54766845703125 8.9493408203125 17.38200950622559 9.118161201477051 L 14.46197891235352 12.09435081481934 C 14.14760875701904 12.41496086120605 14.00403881072998 12.87424087524414 14.07779884338379 13.32304096221924 L 14.76696872711182 17.52543067932129 C 14.79542922973633 17.69868087768555 14.72315883636475 17.81464195251465 14.67754936218262 17.86836051940918 C 14.60766887664795 17.95067024230957 14.5080394744873 17.99982070922852 14.41105937957764 17.99983024597168 C 14.35745906829834 17.99984169006348 14.30356884002686 17.98517036437988 14.25089931488037 17.95624160766602 L 10.64184951782227 15.97232151031494 C 10.44504928588867 15.86418151855469 10.22311878204346 15.80704116821289 9.999979019165039 15.80704116821289 C 9.776839256286621 15.80704116821289 9.554908752441406 15.86418151855469 9.358188629150391 15.97228145599365 L 5.748939037322998 17.95632171630859 C 5.696208953857422 17.98532104492188 5.642319202423096 18.00000190734863 5.588708877563477 18.00000190734863 Z" stroke="none"/>
    <path d="M 10.00000381469727 3.708469390869141 L 8.327279090881348 7.252561569213867 C 8.059349060058594 7.820341110229492 7.534798622131348 8.214631080627441 6.924328804016113 8.307230949401855 L 3.093887329101562 8.889266014099121 L 5.895129203796387 11.74437141418457 C 6.320609092712402 12.1782808303833 6.515138626098633 12.79883098602295 6.415589332580566 13.40378093719482 L 5.763917922973633 17.37752532958984 L 9.117388725280762 15.53409099578857 C 9.387688636779785 15.38555145263672 9.692878723144531 15.30704116821289 9.999979019165039 15.30704116821289 C 10.30706882476807 15.30704116821289 10.61225891113281 15.38555145263672 10.88270950317383 15.53416061401367 L 14.23603057861328 17.37750434875488 L 13.58441925048828 13.40413093566895 C 13.48490905761719 12.79871082305908 13.67945861816406 12.17825126647949 14.10506916046143 11.74417114257812 L 16.90611839294434 8.889261245727539 L 13.07590866088867 8.307271003723145 C 12.46523857116699 8.214631080627441 11.94068908691406 7.820361137390137 11.67274951934814 7.252620697021484 L 10.00000381469727 3.708469390869141 M 9.999865531921387 2.500005722045898 C 10.30712890625 2.500005722045898 10.61443901062012 2.667430877685547 10.77248859405518 3.002281188964844 L 12.57708930969238 6.825800895690918 C 12.70258903503418 7.091731071472168 12.94518852233887 7.2760009765625 13.22588920593262 7.318581581115723 L 17.26128005981445 7.931751251220703 C 17.96817970275879 8.039240837097168 18.25017929077148 8.947311401367188 17.73887825012207 9.468360900878906 L 14.81887912750244 12.44451141357422 C 14.61597919464111 12.65145111083984 14.52317905426025 12.94990158081055 14.5711784362793 13.24195098876953 L 15.26037883758545 17.44451141357422 C 15.38127899169922 18.18050193786621 14.64227771759033 18.74168014526367 14.01017951965332 18.39448165893555 L 10.40098857879639 16.41048049926758 C 10.14998912811279 16.27256202697754 9.849967956542969 16.27256202697754 9.598989486694336 16.41048049926758 L 5.989799499511719 18.39448165893555 C 5.357683181762695 18.74209976196289 4.618748664855957 18.18050193786621 4.739568710327148 17.44451141357422 L 5.428769111633301 13.24195098876953 C 5.476828575134277 12.94990158081055 5.384038925170898 12.65145111083984 5.181118965148926 12.44451141357422 L 2.261119842529297 9.468360900878906 C 1.749818801879883 8.946961402893066 2.031839370727539 8.038901329040527 2.738719940185547 7.931751251220703 L 6.77410888671875 7.318581581115723 C 7.05479907989502 7.2760009765625 7.297429084777832 7.091731071472168 7.422919273376465 6.825800895690918 L 9.227519035339355 3.002281188964844 C 9.385383605957031 2.667430877685547 9.692601203918457 2.500005722045898 9.999865531921387 2.500005722045898 Z" stroke="none" fill="#fff"/>
  </g>
</svg>
