<svg id="icon_award" data-name="icon award" xmlns="http://www.w3.org/2000/svg" width="20" height="20" viewBox="0 0 20 20">
  <rect id="Rectangle_501" data-name="Rectangle 501" width="20" height="20" fill="none"/>
  <path id="trophy" d="M14.364,2.273H12.455V1.636A.636.636,0,0,0,11.818,1H4.182a.636.636,0,0,0-.636.636v.636H1.636A.636.636,0,0,0,1,2.909V4.182A3.178,3.178,0,0,0,3.721,7.317a4.46,4.46,0,0,0,3.643,3.177v1.324H4.818a.636.636,0,0,0-.6.435l-.636,1.909a.636.636,0,0,0,.6.837h7.636a.636.636,0,0,0,.6-.837l-.636-1.909a.636.636,0,0,0-.6-.435H8.636V10.495a4.46,4.46,0,0,0,3.643-3.177A3.178,3.178,0,0,0,15,4.182V2.909a.636.636,0,0,0-.636-.636ZM3.545,5.982a1.913,1.913,0,0,1-1.273-1.8V3.545H3.545Zm7.178,7.109.212.636H5.064l.213-.636Zm.459-7a3.182,3.182,0,0,1-6.364,0V2.273h6.364Zm2.545-1.909a1.913,1.913,0,0,1-1.273,1.8V3.545h1.273Z" transform="translate(2 2)" fill="#888"/>
</svg>
