<svg id="icon-comment" xmlns="http://www.w3.org/2000/svg" width="20" height="20" viewBox="0 0 20 20">
  <rect id="Rectangle_497" data-name="Rectangle 497" width="20" height="20" fill="none"/>
  <g id="chat" transform="translate(2 2)">
    <path id="Path_2938" data-name="Path 2938" d="M11.818,1H4.182A3.185,3.185,0,0,0,1,4.182V9.273A3.188,3.188,0,0,0,3.545,12.39v1.973a.636.636,0,0,0,.99.529l3.658-2.439h3.625A3.185,3.185,0,0,0,15,9.273V4.182A3.185,3.185,0,0,0,11.818,1ZM7.647,11.289,4.818,13.174V11.818a.637.637,0,0,0-.636-.636A1.911,1.911,0,0,1,2.273,9.273V4.182A1.911,1.911,0,0,1,4.182,2.273h7.636a1.911,1.911,0,0,1,1.909,1.909V9.273a1.911,1.911,0,0,1-1.909,1.909H8a.622.622,0,0,0-.353.107Z" fill="#888"/>
    <path id="Path_2939" data-name="Path 2939" d="M12.222,7H5.556C5.249,7,5,7.348,5,7.778s.249.778.556.778h6.667c.307,0,.556-.348.556-.778S12.529,7,12.222,7Z" transform="translate(-0.889 -2.267)" fill="#888"/>
    <path id="Path_2940" data-name="Path 2940" d="M14,11H7.778a.778.778,0,1,0,0,1.556H14A.778.778,0,1,0,14,11Z" transform="translate(-2.889 -3.778)" fill="#888"/>
  </g>
</svg>
