<svg id="icon_download" data-name="icon download" xmlns="http://www.w3.org/2000/svg" width="11" height="11" viewBox="0 0 11 11">
  <path id="icon_download-2" data-name="icon download" d="M9.493,7.332a.506.506,0,1,1,.681.748L7.5,10.515,4.824,8.08A.506.506,0,0,1,5.5,7.332L6.993,8.687V2.506A.506.506,0,0,1,8,2.506V8.687ZM3,10.5a.5.5,0,0,0-1,0v.667A1.833,1.833,0,0,0,3.833,13h7.333A1.833,1.833,0,0,0,13,11.166V10.5a.5.5,0,0,0-1,0v.667a.833.833,0,0,1-.833.833H3.833A.833.833,0,0,1,3,11.166Z" transform="translate(-2 -2)" fill="#888" fill-rule="evenodd"/>
</svg>
