<svg id="navi-setting-editor" xmlns="http://www.w3.org/2000/svg" width="24" height="24" viewBox="0 0 24 24">
  <g id="Group_860" data-name="Group 860" transform="translate(0 3.844)">
    <path id="Path_2921" data-name="Path 2921" d="M13.713,93.415a2.122,2.122,0,0,1-.824.51l-2.983.994a2.1,2.1,0,0,1-.667.108h0a2.109,2.109,0,0,1-2-2.776l.994-2.983a2.119,2.119,0,0,1,.51-.825L15.184,82H2.578A2.581,2.581,0,0,0,0,84.578v15a2.581,2.581,0,0,0,2.578,2.578h15a2.581,2.581,0,0,0,2.578-2.578V86.972Z" transform="translate(0 -82)" fill="#fff"/>
  </g>
  <path id="Path_2922" data-name="Path 2922" d="M183.286,62.069a.7.7,0,0,0-.17.275l-.994,2.983a.7.7,0,0,0,.889.889l2.983-.994a.7.7,0,0,0,.275-.17l8.784-8.784-2.983-2.983Z" transform="translate(-173.55 -50.787)" fill="#fff"/>
  <path id="Path_2923" data-name="Path 2923" d="M419.106.343a1.172,1.172,0,0,0-1.657,0l-1.16,1.16,2.983,2.983,1.16-1.16a1.172,1.172,0,0,0,0-1.657Z" transform="translate(-396.775 0)" fill="#fff"/>
</svg>
