<svg xmlns="http://www.w3.org/2000/svg" width="14.769" height="12" viewBox="0 0 14.769 12">
  <path id="Mail" d="M3.462,5.212a.65.65,0,0,1,.568-.338h10.7a.65.65,0,0,1,.568.338L9.379,9.326ZM2,5.5q0,.01,0,.02v7.961A2.026,2.026,0,0,0,4.029,15.5h10.7a2.026,2.026,0,0,0,2.029-2.015q0-1.33.006-2.659c.006-1.771.011-3.542-.006-5.313,0,0,0-.005,0-.008V5.5a2.04,2.04,0,0,0-2.029-2H4.029A2.026,2.026,0,0,0,2,5.5ZM15.375,6.835v6.65a.647.647,0,0,1-.646.641H4.029a.647.647,0,0,1-.646-.641V6.835l5.6,3.892a.7.7,0,0,0,.793,0Z" transform="translate(-2 -3.5)" fill="rgba(55,55,55,0.5)" fill-rule="evenodd"/>
</svg>
