<svg xmlns="http://www.w3.org/2000/svg" width="12" height="12" viewBox="0 0 12 12">
  <g id="icon_link" data-name="icon link" transform="translate(0 0)">
    <path id="Link" d="M10.609,2A3.428,3.428,0,0,0,8.2,2.956l-.988.978a.561.561,0,0,0,0,.8.567.567,0,0,0,.8,0l.979-.97a2.286,2.286,0,0,1,3.24,3.225l-1.71,1.7a2.3,2.3,0,0,1-3.455-.246.564.564,0,0,0-.9.674,3.43,3.43,0,0,0,5.158.368L13.033,7.78l.007-.007A3.406,3.406,0,0,0,10.609,2ZM7.344,5.525a3.429,3.429,0,0,0-2.664.989L2.967,8.22l-.007.007A3.414,3.414,0,0,0,7.8,13.044l.984-.98a.561.561,0,0,0,0-.8.567.567,0,0,0-.8,0l-.973.969A2.286,2.286,0,0,1,3.77,9.012l1.71-1.7a2.3,2.3,0,0,1,3.455.246.564.564,0,0,0,.9-.674A3.425,3.425,0,0,0,7.344,5.525Z" transform="translate(-2 -2)" fill="#888" fill-rule="evenodd"/>
  </g>
</svg>
