<svg id="icon-status-edit" xmlns="http://www.w3.org/2000/svg" width="20" height="20" viewBox="0 0 20 20">
  <rect id="icon-background" width="20" height="20" fill="none"/>
  <path id="Edit" d="M11.886,3.125a.989.989,0,0,0-.7.29l-.88.88,1.4,1.4.88-.88a.989.989,0,0,0-.7-1.688ZM10.91,6.488l-1.4-1.4L3.889,10.713l-.524,1.923,1.923-.524Zm.167-4.327a2.114,2.114,0,0,1,2.3,3.448l-7.4,7.4a.562.562,0,0,1-.25.145l-3.016.823a.563.563,0,0,1-.691-.691l.823-3.016a.562.562,0,0,1,.145-.25l7.4-7.4A2.114,2.114,0,0,1,11.077,2.161Z" transform="translate(2 2)" fill="#333" fill-rule="evenodd"/>
</svg>
