<svg width="19" height="18" viewBox="0 0 19 18" fill="none" xmlns="http://www.w3.org/2000/svg">
<path fill-rule="evenodd" clip-rule="evenodd" d="M7.29499 1.91802C7.46341 1.76799 7.68144 1.68569 7.90699 1.68702H11.495C11.7205 1.68569 11.9386 1.76799 12.107 1.91802C12.186 1.9879 12.2494 2.07359 12.2931 2.16954C12.3369 2.26549 12.36 2.36956 12.361 2.47502V3.26302H7.04099V2.47502C7.04196 2.36956 7.06507 2.26549 7.10883 2.16954C7.15259 2.07359 7.21601 1.9879 7.29499 1.91802ZM5.18099 3.26202V2.47502C5.18437 2.14356 5.25733 1.81652 5.39514 1.51506C5.53295 1.21359 5.73254 0.944438 5.98099 0.725016C6.51104 0.253157 7.19735 -0.00519005 7.90699 1.6145e-05H11.495C12.2039 -0.00469392 12.8894 0.253621 13.419 0.725016C13.6674 0.944438 13.867 1.21359 14.0048 1.51506C14.1426 1.81652 14.2156 2.14356 14.219 2.47502V3.26302H17.776C18.0108 3.25241 18.2403 3.33526 18.4142 3.49343C18.5881 3.6516 18.6923 3.87222 18.704 4.10702C18.6923 4.34181 18.5881 4.56243 18.4142 4.7206C18.2403 4.87877 18.0108 4.96162 17.776 4.95102H16.91V15.525C16.9066 15.8565 16.8336 16.1835 16.6958 16.485C16.558 16.7864 16.3584 17.0556 16.11 17.275C15.5792 17.7476 14.8917 18.006 14.181 18H5.21599C4.5067 18.005 3.82079 17.7466 3.29099 17.275C3.04254 17.0556 2.84295 16.7864 2.70514 16.485C2.56733 16.1835 2.49437 15.8565 2.49099 15.525V4.95002H1.62899C1.39414 4.96062 1.16466 4.87777 0.990747 4.7196C0.816833 4.56143 0.712649 4.34081 0.700989 4.10602C0.712649 3.87122 0.816833 3.6506 0.990747 3.49243C1.16466 3.33426 1.39414 3.25141 1.62899 3.26202H5.18099ZM4.34999 15.525V4.95002H15.05V15.525C15.049 15.6305 15.0259 15.7345 14.9821 15.8305C14.9384 15.9264 14.875 16.0121 14.796 16.082C14.6276 16.232 14.4095 16.3143 14.184 16.313H5.21599C4.99044 16.3143 4.77241 16.232 4.60399 16.082C4.52501 16.0121 4.46159 15.9264 4.41783 15.8305C4.37407 15.7345 4.35096 15.6305 4.34999 15.525ZM7.90699 7.34102C8.14183 7.33041 8.37132 7.41326 8.54523 7.57143C8.71914 7.7296 8.82333 7.95022 8.83499 8.18502V13.079C8.81349 13.3103 8.70643 13.5252 8.53478 13.6816C8.36312 13.838 8.13924 13.9248 7.90699 13.9248C7.67474 13.9248 7.45086 13.838 7.2792 13.6816C7.10754 13.5252 7.00048 13.3103 6.97899 13.079V8.18402C6.9909 7.9494 7.0952 7.72904 7.26908 7.57108C7.44297 7.41312 7.67231 7.33041 7.90699 7.34102ZM12.422 8.18502C12.4005 7.95376 12.2934 7.73887 12.1218 7.58243C11.9501 7.42599 11.7262 7.33927 11.494 7.33927C11.2617 7.33927 11.0379 7.42599 10.8662 7.58243C10.6945 7.73887 10.5875 7.95376 10.566 8.18502V13.079C10.5875 13.3103 10.6945 13.5252 10.8662 13.6816C11.0379 13.838 11.2617 13.9248 11.494 13.9248C11.7262 13.9248 11.9501 13.838 12.1218 13.6816C12.2934 13.5252 12.4005 13.3103 12.422 13.079V8.18502Z" fill="#818386"/>
</svg>
