<svg id="icon_year" data-name="icon year" xmlns="http://www.w3.org/2000/svg" width="20" height="20" viewBox="0 0 20 20">
  <rect id="Rectangle_486" data-name="Rectangle 486" width="20" height="20" fill="none"/>
  <path id="Update" d="M9.693,2.192a.7.7,0,0,0-.963,0,.64.64,0,0,0,0,.928L9.946,4.292l-.262,0L9.238,4.3l-.139,0H9.056A5.959,5.959,0,0,0,3,10.153,5.96,5.96,0,0,0,9.067,16a5.96,5.96,0,0,0,6.067-5.847.681.681,0,0,0-1.362,0,4.622,4.622,0,0,1-4.7,4.534,4.622,4.622,0,0,1-4.7-4.534,4.622,4.622,0,0,1,4.7-4.534h.07l.134,0L9.7,5.606c.206,0,.408,0,.564,0L8.73,7.086a.64.64,0,0,0,0,.928.7.7,0,0,0,.963,0l2.539-2.447a.64.64,0,0,0,0-.928Z" transform="translate(1 1)" fill="#888" fill-rule="evenodd"/>
</svg>
