<svg id="logo-facebook" xmlns="http://www.w3.org/2000/svg" width="28" height="28" viewBox="0 0 28 28">
  <circle id="Ellipse_white" data-name="Ellipse white" cx="14" cy="14" r="14" fill="#fff"/>
  <circle id="Ellipse_grey" data-name="Ellipse grey" cx="10" cy="10" r="10" transform="translate(3 3)" fill="#e3e3e3"/>
  <path id="_001-facebook" data-name="001-facebook" d="M20,10A10,10,0,1,0,10,20c.059,0,.117,0,.176,0V12.215H8.027v-2.5h2.148V7.867a3.009,3.009,0,0,1,3.211-3.3,17.452,17.452,0,0,1,1.926.1V6.9H14c-1.035,0-1.238.492-1.238,1.215V9.707h2.48l-.324,2.5H12.762v7.4A10,10,0,0,0,20,10Z" transform="translate(3 3)" fill="#fff"/>
</svg>
