<svg id="logo-linkedin" xmlns="http://www.w3.org/2000/svg" width="28" height="28" viewBox="0 0 28 28">
  <circle id="Ellipse_white" data-name="Ellipse white" cx="14" cy="14" r="14" fill="#fff"/>
  <circle id="Ellipse_grey" data-name="Ellipse grey" cx="10" cy="10" r="10" transform="translate(4 4)" fill="#e3e3e3"/>
  <path id="Path_1303" data-name="Path 1303" d="M10,0A10,10,0,1,0,20,10,10,10,0,0,0,10,0ZM6.253,16.771H3.442V7.725H6.253ZM4.848,6.489a1.63,1.63,0,1,1,1.629-1.63A1.63,1.63,0,0,1,4.848,6.489ZM16.782,16.771H13.973v-4.4c0-1.049-.019-2.4-1.461-2.4-1.462,0-1.687,1.143-1.687,2.322V16.77H8.016V7.725h2.7V8.961h.038A2.954,2.954,0,0,1,13.41,7.5c2.847,0,3.372,1.873,3.372,4.309v4.961Z" transform="translate(4 4)" fill="#fff"/>
</svg>
