<svg id="icon-farvorite-white" xmlns="http://www.w3.org/2000/svg" width="28" height="28" viewBox="0 0 28 28">
  <circle id="Ellipse_18" data-name="Ellipse 18" cx="14" cy="14" r="14" fill="#fff"/>
  <path id="icon-favorite" d="M13.032,5.227a.694.694,0,0,0-.6-.477L8.663,4.408,7.172.918a.695.695,0,0,0-1.278,0L4.4,4.408.631,4.75A.7.7,0,0,0,.236,5.966l2.851,2.5-.841,3.7a.694.694,0,0,0,1.033.751l3.253-1.945,3.252,1.945a.7.7,0,0,0,1.034-.751l-.841-3.7,2.851-2.5A.7.7,0,0,0,13.032,5.227ZM6.6,10.937" transform="translate(7.467 6.971)" fill="#e3e3e3"/>
</svg>
