<svg id="logo-instagram-white" xmlns="http://www.w3.org/2000/svg" width="28" height="28" viewBox="0 0 28 28">
  <circle id="Ellipse_white" data-name="Ellipse white" cx="14" cy="14" r="14" fill="#fff"/>
  <circle id="Ellipse_grey" data-name="Ellipse grey" cx="12" cy="12" r="12" transform="translate(2 2)" fill="#e3e3e3"/>
  <g id="_011-instagram" data-name="011-instagram" transform="translate(1.867 1.867)">
    <path id="Path_1296" data-name="Path 1296" d="M211.645,209.322A2.322,2.322,0,1,1,209.322,207,2.322,2.322,0,0,1,211.645,209.322Zm0,0" transform="translate(-197.189 -197.189)" fill="#fff"/>
    <path id="Path_1297" data-name="Path 1297" d="M146.628,137.091a2.307,2.307,0,0,0-1.322-1.322,3.855,3.855,0,0,0-1.294-.24c-.735-.034-.955-.041-2.815-.041s-2.081.007-2.815.041a3.857,3.857,0,0,0-1.294.24,2.308,2.308,0,0,0-1.322,1.322,3.856,3.856,0,0,0-.24,1.294c-.034.735-.041.955-.041,2.815s.007,2.081.041,2.815a3.855,3.855,0,0,0,.24,1.294,2.307,2.307,0,0,0,1.322,1.322,3.85,3.85,0,0,0,1.294.24c.735.034.955.041,2.815.041s2.081-.007,2.815-.041a3.85,3.85,0,0,0,1.294-.24,2.307,2.307,0,0,0,1.322-1.322,3.859,3.859,0,0,0,.24-1.294c.033-.735.041-.955.041-2.815s-.007-2.081-.041-2.815A3.851,3.851,0,0,0,146.628,137.091Zm-5.431,7.687a3.578,3.578,0,1,1,3.578-3.578A3.578,3.578,0,0,1,141.2,144.778Zm3.719-6.461a.836.836,0,1,1,.836-.836A.836.836,0,0,1,144.915,138.317Zm0,0" transform="translate(-129.063 -129.067)" fill="#fff"/>
    <path id="Path_1298" data-name="Path 1298" d="M12.133,0A12.133,12.133,0,1,0,24.267,12.133,12.135,12.135,0,0,0,12.133,0Zm6.925,15.006a5.112,5.112,0,0,1-.324,1.691A3.562,3.562,0,0,1,16.7,18.735a5.115,5.115,0,0,1-1.691.324c-.743.034-.98.042-2.872.042S10,19.092,9.261,19.058a5.115,5.115,0,0,1-1.691-.324A3.562,3.562,0,0,1,5.532,16.7a5.11,5.11,0,0,1-.324-1.691c-.034-.743-.042-.981-.042-2.873S5.174,10,5.208,9.261A5.112,5.112,0,0,1,5.532,7.57,3.565,3.565,0,0,1,7.57,5.532a5.116,5.116,0,0,1,1.691-.324c.743-.034.98-.042,2.872-.042s2.129.008,2.872.042a5.117,5.117,0,0,1,1.691.323A3.563,3.563,0,0,1,18.735,7.57a5.111,5.111,0,0,1,.324,1.691c.034.743.042.98.042,2.872S19.093,14.263,19.058,15.006Zm0,0" fill="#fff"/>
  </g>
</svg>
