<svg id="logo-pinterest-white" xmlns="http://www.w3.org/2000/svg" width="28" height="28" viewBox="0 0 28 28">
  <circle id="Ellipse_white" data-name="Ellipse white" cx="14" cy="14" r="14" fill="#fff"/>
  <circle id="Ellipse_grey" data-name="Ellipse grey" cx="9" cy="9" r="9" transform="translate(5 5)" fill="#e3e3e3"/>
  <path id="Path_1299" data-name="Path 1299" d="M9.333,0a9.333,9.333,0,1,0,9.333,9.333A9.333,9.333,0,0,0,9.333,0Zm1.074,12.433a2.293,2.293,0,0,1-1.953-1s-.464,1.842-.562,2.2A8.517,8.517,0,0,1,6.448,16.25a.106.106,0,0,1-.19-.046,8.972,8.972,0,0,1,.024-3.038C6.435,12.517,7.31,8.81,7.31,8.81a3.078,3.078,0,0,1-.255-1.265c0-1.185.687-2.069,1.542-2.069a1.07,1.07,0,0,1,1.078,1.2A17.175,17.175,0,0,1,8.97,9.513a1.237,1.237,0,0,0,1.261,1.54c1.515,0,2.534-1.946,2.534-4.251A2.993,2.993,0,0,0,9.44,3.738,3.787,3.787,0,0,0,5.5,7.567a2.306,2.306,0,0,0,.528,1.568.388.388,0,0,1,.115.446c-.039.147-.126.5-.163.641a.276.276,0,0,1-.4.2A3.08,3.08,0,0,1,3.945,7.368c0-2.271,1.915-4.994,5.714-4.994a4.779,4.779,0,0,1,5.062,4.58C14.721,10.09,12.977,12.433,10.407,12.433Z" transform="translate(4.667 4.667)" fill="#fff"/>
</svg>
