<svg id="icon-share-white" xmlns="http://www.w3.org/2000/svg" width="28" height="28" viewBox="0 0 28 28">
  <circle id="Ellipse_19" data-name="Ellipse 19" cx="14" cy="14" r="14" fill="#fff"/>
  <g id="icon-share" transform="translate(5.2 5.973)">
    <path id="Path_1286" data-name="Path 1286" d="M319.1,18.216A2.216,2.216,0,1,1,316.884,16,2.216,2.216,0,0,1,319.1,18.216Zm0,0" transform="translate(-304.611 -15.488)" fill="#e3e3e3"/>
    <path id="Path_1287" data-name="Path 1287" d="M301.4,5.455a2.727,2.727,0,1,1,2.727-2.727A2.73,2.73,0,0,1,301.4,5.455Zm0-4.432a1.7,1.7,0,1,0,1.7,1.7A1.706,1.706,0,0,0,301.4,1.023Zm0,0" transform="translate(-289.123)" fill="#e3e3e3"/>
    <path id="Path_1288" data-name="Path 1288" d="M319.1,359.548a2.216,2.216,0,1,1-2.216-2.216A2.216,2.216,0,0,1,319.1,359.548Zm0,0" transform="translate(-304.611 -345.911)" fill="#e3e3e3"/>
    <path id="Path_1289" data-name="Path 1289" d="M301.4,346.787a2.727,2.727,0,1,1,2.727-2.727A2.73,2.73,0,0,1,301.4,346.787Zm0-4.432a1.7,1.7,0,1,0,1.7,1.7A1.707,1.707,0,0,0,301.4,342.355Zm0,0" transform="translate(-289.123 -330.423)" fill="#e3e3e3"/>
    <path id="Path_1290" data-name="Path 1290" d="M20.432,188.884a2.216,2.216,0,1,1-2.216-2.216A2.216,2.216,0,0,1,20.432,188.884Zm0,0" transform="translate(-15.488 -180.702)" fill="#e3e3e3"/>
    <path id="Path_1291" data-name="Path 1291" d="M2.727,176.122A2.727,2.727,0,1,1,5.455,173.4,2.73,2.73,0,0,1,2.727,176.122Zm0-4.432a1.7,1.7,0,1,0,1.7,1.7A1.706,1.706,0,0,0,2.727,171.691Zm0,0" transform="translate(0 -165.213)" fill="#e3e3e3"/>
    <path id="Path_1292" data-name="Path 1292" d="M115.031,95.186a.682.682,0,0,1-.338-1.274l6.327-3.607a.682.682,0,1,1,.675,1.185L115.368,95.1A.677.677,0,0,1,115.031,95.186Zm0,0" transform="translate(-110.693 -87.331)" fill="#e3e3e3"/>
    <path id="Path_1293" data-name="Path 1293" d="M121.379,271.19a.677.677,0,0,1-.337-.089l-6.327-3.607a.682.682,0,0,1,.675-1.185l6.327,3.607a.682.682,0,0,1-.338,1.274Zm0,0" transform="translate(-110.715 -257.71)" fill="#e3e3e3"/>
  </g>
</svg>
