<svg id="icon_upload" data-name="icon upload" xmlns="http://www.w3.org/2000/svg" width="40" height="40" viewBox="0 0 20 20">
  <rect id="Rectangle_566" data-name="Rectangle 566" width="40" height="40" fill="none"/>
  <path id="icon-cloud" d="M6.561,6.3A3.148,3.148,0,0,1,9.64,4.771a2.387,2.387,0,0,1,2.275,2.108.655.655,0,0,0,.651.571,2.154,2.154,0,0,1,2.1,2.119,2.472,2.472,0,0,1-1.392,2.7H11.332a.652.652,0,1,0,0,1.3h2.056a.66.66,0,0,0,.208-.033A3.747,3.747,0,0,0,15.971,9.42a3.512,3.512,0,0,0-2.856-3.233A3.716,3.716,0,0,0,9.774,3.474,4.514,4.514,0,0,0,5.751,5.153a2.036,2.036,0,0,0-2.068.563,2.207,2.207,0,0,0-.559,2.048,3.235,3.235,0,0,0-1.1,2.891,3.317,3.317,0,0,0,2.116,2.888.66.66,0,0,0,.208.033H6.4a.652.652,0,1,0,0-1.3H4.46a2.063,2.063,0,0,1-1.134-1.748A1.822,1.822,0,0,1,4.22,8.611.65.65,0,0,0,4.5,7.7a.892.892,0,0,1,.133-1.083.726.726,0,0,1,.991-.092A.659.659,0,0,0,6.561,6.3ZM9.33,7.971,8.865,7.51,8.4,7.971,6.346,10.013a.649.649,0,0,0,0,.922.659.659,0,0,0,.928,0l.936-.929V14.15a.656.656,0,0,0,1.313,0V10.006l.936.929a.659.659,0,0,0,.928,0,.649.649,0,0,0,0-.922Z" transform="translate(1 0.55)" fill="#D6D6D6" fill-rule="evenodd"/>
</svg>
