<svg id="logo-vimeo-social" xmlns="http://www.w3.org/2000/svg" width="28" height="28" viewBox="0 0 28 28">
  <circle id="Ellipse_white" data-name="Ellipse white" cx="14" cy="14" r="14" fill="#fff"/>
  <circle id="Ellipse_grey" data-name="Ellipse grey" cx="10" cy="10" r="10" transform="translate(4 4)" fill="#e3e3e3"/>
  <path id="Path_1302" data-name="Path 1302" d="M10,0A10,10,0,1,0,20,10,10,10,0,0,0,10,0Zm7.07,6.71q-.094,2.067-2.887,5.661Q11.3,16.124,9.3,16.124q-1.237,0-2.093-2.286-.571-2.1-1.143-4.19Q5.429,7.362,4.7,7.361a4.39,4.39,0,0,0-1.111.667L2.923,7.17q1.047-.92,2.065-1.843a4.688,4.688,0,0,1,2.1-1.271Q8.738,3.9,9.12,6.316q.412,2.61.572,3.245.476,2.165,1.048,2.165.445,0,1.335-1.4a5.541,5.541,0,0,0,.953-2.138q.127-1.213-.953-1.213a2.636,2.636,0,0,0-1.048.232q1.043-3.418,3.986-3.324Q17.2,3.943,17.07,6.71Z" transform="translate(4 4)" fill="#fff"/>
</svg>
